<mxfile host="Electron" modified="2024-03-20T03:50:45.362Z" agent="Mozilla/5.0 (Windows NT 10.0; Win64; x64) AppleWebKit/537.36 (KHTML, like Gecko) draw.io/22.0.2 Chrome/114.0.5735.289 Electron/25.8.4 Safari/537.36" etag="rAVJ9RbpWZlSjQ9UXzes" version="22.0.2" type="device" pages="2">
  <diagram name="AOA - Câu 1" id="D2IJn95BqaMWtAtmJo3o">
    <mxGraphModel dx="460" dy="626" grid="1" gridSize="10" guides="1" tooltips="1" connect="1" arrows="1" fold="1" page="1" pageScale="1" pageWidth="850" pageHeight="1100" math="0" shadow="0">
      <root>
        <mxCell id="0" />
        <mxCell id="1" parent="0" />
        <mxCell id="_5IOUEIMtDK445-URSD--5" style="rounded=0;orthogonalLoop=1;jettySize=auto;html=1;entryX=0;entryY=0.5;entryDx=0;entryDy=0;" edge="1" parent="1" source="_5IOUEIMtDK445-URSD--1" target="_5IOUEIMtDK445-URSD--2">
          <mxGeometry relative="1" as="geometry" />
        </mxCell>
        <mxCell id="_5IOUEIMtDK445-URSD--1" value="1/BĐ" style="ellipse;whiteSpace=wrap;html=1;aspect=fixed;" vertex="1" parent="1">
          <mxGeometry x="80" y="570" width="80" height="80" as="geometry" />
        </mxCell>
        <mxCell id="_5IOUEIMtDK445-URSD--12" style="rounded=0;orthogonalLoop=1;jettySize=auto;html=1;entryX=0;entryY=0.5;entryDx=0;entryDy=0;" edge="1" parent="1" source="_5IOUEIMtDK445-URSD--2" target="_5IOUEIMtDK445-URSD--11">
          <mxGeometry relative="1" as="geometry" />
        </mxCell>
        <mxCell id="_5IOUEIMtDK445-URSD--16" style="rounded=0;orthogonalLoop=1;jettySize=auto;html=1;" edge="1" parent="1" source="_5IOUEIMtDK445-URSD--2" target="_5IOUEIMtDK445-URSD--15">
          <mxGeometry relative="1" as="geometry" />
        </mxCell>
        <mxCell id="_5IOUEIMtDK445-URSD--42" style="rounded=0;orthogonalLoop=1;jettySize=auto;html=1;entryX=0;entryY=1;entryDx=0;entryDy=0;" edge="1" parent="1" source="_5IOUEIMtDK445-URSD--2" target="_5IOUEIMtDK445-URSD--14">
          <mxGeometry relative="1" as="geometry" />
        </mxCell>
        <mxCell id="_5IOUEIMtDK445-URSD--2" value="3" style="ellipse;whiteSpace=wrap;html=1;aspect=fixed;" vertex="1" parent="1">
          <mxGeometry x="230" y="640" width="80" height="80" as="geometry" />
        </mxCell>
        <mxCell id="_5IOUEIMtDK445-URSD--3" value="2" style="ellipse;whiteSpace=wrap;html=1;aspect=fixed;" vertex="1" parent="1">
          <mxGeometry x="240" y="320" width="80" height="80" as="geometry" />
        </mxCell>
        <mxCell id="_5IOUEIMtDK445-URSD--4" style="rounded=0;orthogonalLoop=1;jettySize=auto;html=1;entryX=0;entryY=0.625;entryDx=0;entryDy=0;entryPerimeter=0;" edge="1" parent="1" source="_5IOUEIMtDK445-URSD--1" target="_5IOUEIMtDK445-URSD--3">
          <mxGeometry relative="1" as="geometry" />
        </mxCell>
        <mxCell id="_5IOUEIMtDK445-URSD--6" value="A" style="text;html=1;align=center;verticalAlign=middle;resizable=0;points=[];autosize=1;strokeColor=none;fillColor=none;" vertex="1" parent="1">
          <mxGeometry x="190" y="470" width="30" height="30" as="geometry" />
        </mxCell>
        <mxCell id="_5IOUEIMtDK445-URSD--7" value="B" style="text;html=1;align=center;verticalAlign=middle;resizable=0;points=[];autosize=1;strokeColor=none;fillColor=none;" vertex="1" parent="1">
          <mxGeometry x="175" y="628" width="30" height="30" as="geometry" />
        </mxCell>
        <mxCell id="_5IOUEIMtDK445-URSD--8" value="&lt;font style=&quot;font-size: 13px;&quot;&gt;Chưa tính time&amp;nbsp;&lt;/font&gt;" style="text;html=1;align=center;verticalAlign=middle;resizable=0;points=[];autosize=1;strokeColor=none;fillColor=none;fontStyle=1;fontColor=#FF4B1F;" vertex="1" parent="1">
          <mxGeometry x="90" y="390" width="120" height="30" as="geometry" />
        </mxCell>
        <mxCell id="_5IOUEIMtDK445-URSD--22" style="rounded=0;orthogonalLoop=1;jettySize=auto;html=1;entryX=0;entryY=0.5;entryDx=0;entryDy=0;" edge="1" parent="1" source="_5IOUEIMtDK445-URSD--11" target="_5IOUEIMtDK445-URSD--21">
          <mxGeometry relative="1" as="geometry" />
        </mxCell>
        <mxCell id="_5IOUEIMtDK445-URSD--11" value="5" style="ellipse;whiteSpace=wrap;html=1;aspect=fixed;" vertex="1" parent="1">
          <mxGeometry x="400" y="510" width="80" height="80" as="geometry" />
        </mxCell>
        <mxCell id="_5IOUEIMtDK445-URSD--13" value="C" style="text;html=1;align=center;verticalAlign=middle;resizable=0;points=[];autosize=1;strokeColor=none;fillColor=none;" vertex="1" parent="1">
          <mxGeometry x="330" y="610" width="30" height="30" as="geometry" />
        </mxCell>
        <mxCell id="_5IOUEIMtDK445-URSD--45" style="rounded=0;orthogonalLoop=1;jettySize=auto;html=1;entryX=0;entryY=0.5;entryDx=0;entryDy=0;" edge="1" parent="1" source="_5IOUEIMtDK445-URSD--14" target="_5IOUEIMtDK445-URSD--44">
          <mxGeometry relative="1" as="geometry" />
        </mxCell>
        <mxCell id="_5IOUEIMtDK445-URSD--14" value="4" style="ellipse;whiteSpace=wrap;html=1;aspect=fixed;" vertex="1" parent="1">
          <mxGeometry x="375" y="320" width="80" height="80" as="geometry" />
        </mxCell>
        <mxCell id="_5IOUEIMtDK445-URSD--25" style="rounded=0;orthogonalLoop=1;jettySize=auto;html=1;" edge="1" parent="1" source="_5IOUEIMtDK445-URSD--15" target="_5IOUEIMtDK445-URSD--24">
          <mxGeometry relative="1" as="geometry" />
        </mxCell>
        <mxCell id="_5IOUEIMtDK445-URSD--15" value="6" style="ellipse;whiteSpace=wrap;html=1;aspect=fixed;" vertex="1" parent="1">
          <mxGeometry x="400" y="710" width="80" height="80" as="geometry" />
        </mxCell>
        <mxCell id="_5IOUEIMtDK445-URSD--17" value="E" style="text;html=1;align=center;verticalAlign=middle;resizable=0;points=[];autosize=1;strokeColor=none;fillColor=none;" vertex="1" parent="1">
          <mxGeometry x="330" y="710" width="30" height="30" as="geometry" />
        </mxCell>
        <mxCell id="_5IOUEIMtDK445-URSD--18" value="8" style="ellipse;whiteSpace=wrap;html=1;aspect=fixed;" vertex="1" parent="1">
          <mxGeometry x="550" y="435" width="80" height="80" as="geometry" />
        </mxCell>
        <mxCell id="_5IOUEIMtDK445-URSD--19" style="rounded=0;orthogonalLoop=1;jettySize=auto;html=1;entryX=0.045;entryY=0.805;entryDx=0;entryDy=0;entryPerimeter=0;" edge="1" parent="1" source="_5IOUEIMtDK445-URSD--11" target="_5IOUEIMtDK445-URSD--18">
          <mxGeometry relative="1" as="geometry" />
        </mxCell>
        <mxCell id="_5IOUEIMtDK445-URSD--20" value="F" style="text;html=1;align=center;verticalAlign=middle;resizable=0;points=[];autosize=1;strokeColor=none;fillColor=none;" vertex="1" parent="1">
          <mxGeometry x="480" y="560" width="30" height="30" as="geometry" />
        </mxCell>
        <mxCell id="_5IOUEIMtDK445-URSD--30" style="rounded=0;orthogonalLoop=1;jettySize=auto;html=1;entryX=0;entryY=0.5;entryDx=0;entryDy=0;" edge="1" parent="1" source="_5IOUEIMtDK445-URSD--21" target="_5IOUEIMtDK445-URSD--29">
          <mxGeometry relative="1" as="geometry" />
        </mxCell>
        <mxCell id="_5IOUEIMtDK445-URSD--21" value="9" style="ellipse;whiteSpace=wrap;html=1;aspect=fixed;" vertex="1" parent="1">
          <mxGeometry x="530" y="570" width="80" height="80" as="geometry" />
        </mxCell>
        <mxCell id="_5IOUEIMtDK445-URSD--23" value="G" style="text;html=1;align=center;verticalAlign=middle;resizable=0;points=[];autosize=1;strokeColor=none;fillColor=none;" vertex="1" parent="1">
          <mxGeometry x="490" y="480" width="30" height="30" as="geometry" />
        </mxCell>
        <mxCell id="_5IOUEIMtDK445-URSD--33" style="rounded=0;orthogonalLoop=1;jettySize=auto;html=1;entryX=0;entryY=1;entryDx=0;entryDy=0;" edge="1" parent="1" source="_5IOUEIMtDK445-URSD--24" target="_5IOUEIMtDK445-URSD--29">
          <mxGeometry relative="1" as="geometry">
            <mxPoint x="690" y="760" as="targetPoint" />
          </mxGeometry>
        </mxCell>
        <mxCell id="_5IOUEIMtDK445-URSD--24" value="10" style="ellipse;whiteSpace=wrap;html=1;aspect=fixed;" vertex="1" parent="1">
          <mxGeometry x="620" y="710" width="80" height="80" as="geometry" />
        </mxCell>
        <mxCell id="_5IOUEIMtDK445-URSD--26" value="H" style="text;html=1;align=center;verticalAlign=middle;resizable=0;points=[];autosize=1;strokeColor=none;fillColor=none;" vertex="1" parent="1">
          <mxGeometry x="490" y="720" width="30" height="30" as="geometry" />
        </mxCell>
        <mxCell id="_5IOUEIMtDK445-URSD--28" style="rounded=0;orthogonalLoop=1;jettySize=auto;html=1;entryX=0.045;entryY=0.759;entryDx=0;entryDy=0;entryPerimeter=0;" edge="1" parent="1" source="_5IOUEIMtDK445-URSD--15" target="_5IOUEIMtDK445-URSD--21">
          <mxGeometry relative="1" as="geometry" />
        </mxCell>
        <mxCell id="_5IOUEIMtDK445-URSD--36" style="rounded=0;orthogonalLoop=1;jettySize=auto;html=1;entryX=0;entryY=0.5;entryDx=0;entryDy=0;" edge="1" parent="1" source="_5IOUEIMtDK445-URSD--29" target="_5IOUEIMtDK445-URSD--35">
          <mxGeometry relative="1" as="geometry" />
        </mxCell>
        <mxCell id="_5IOUEIMtDK445-URSD--29" value="13" style="ellipse;whiteSpace=wrap;html=1;aspect=fixed;" vertex="1" parent="1">
          <mxGeometry x="680" y="568" width="80" height="80" as="geometry" />
        </mxCell>
        <mxCell id="_5IOUEIMtDK445-URSD--31" value="I" style="text;html=1;align=center;verticalAlign=middle;resizable=0;points=[];autosize=1;strokeColor=none;fillColor=none;" vertex="1" parent="1">
          <mxGeometry x="620" y="580" width="30" height="30" as="geometry" />
        </mxCell>
        <mxCell id="_5IOUEIMtDK445-URSD--34" value="J" style="text;html=1;align=center;verticalAlign=middle;resizable=0;points=[];autosize=1;strokeColor=none;fillColor=none;" vertex="1" parent="1">
          <mxGeometry x="630" y="658" width="30" height="30" as="geometry" />
        </mxCell>
        <mxCell id="_5IOUEIMtDK445-URSD--53" style="rounded=0;orthogonalLoop=1;jettySize=auto;html=1;entryX=0;entryY=1;entryDx=0;entryDy=0;" edge="1" parent="1" source="_5IOUEIMtDK445-URSD--35" target="_5IOUEIMtDK445-URSD--50">
          <mxGeometry relative="1" as="geometry" />
        </mxCell>
        <mxCell id="_5IOUEIMtDK445-URSD--35" value="14" style="ellipse;whiteSpace=wrap;html=1;aspect=fixed;" vertex="1" parent="1">
          <mxGeometry x="840" y="568" width="80" height="80" as="geometry" />
        </mxCell>
        <mxCell id="_5IOUEIMtDK445-URSD--37" value="L" style="text;html=1;align=center;verticalAlign=middle;resizable=0;points=[];autosize=1;strokeColor=none;fillColor=none;" vertex="1" parent="1">
          <mxGeometry x="780" y="580" width="30" height="30" as="geometry" />
        </mxCell>
        <mxCell id="_5IOUEIMtDK445-URSD--52" style="edgeStyle=orthogonalEdgeStyle;rounded=0;orthogonalLoop=1;jettySize=auto;html=1;entryX=0;entryY=0.5;entryDx=0;entryDy=0;" edge="1" parent="1" source="_5IOUEIMtDK445-URSD--38" target="_5IOUEIMtDK445-URSD--50">
          <mxGeometry relative="1" as="geometry" />
        </mxCell>
        <mxCell id="_5IOUEIMtDK445-URSD--38" value="12" style="ellipse;whiteSpace=wrap;html=1;aspect=fixed;" vertex="1" parent="1">
          <mxGeometry x="700" y="435" width="80" height="80" as="geometry" />
        </mxCell>
        <mxCell id="_5IOUEIMtDK445-URSD--39" style="rounded=0;orthogonalLoop=1;jettySize=auto;html=1;entryX=0;entryY=0.5;entryDx=0;entryDy=0;" edge="1" parent="1" source="_5IOUEIMtDK445-URSD--18" target="_5IOUEIMtDK445-URSD--38">
          <mxGeometry relative="1" as="geometry" />
        </mxCell>
        <mxCell id="_5IOUEIMtDK445-URSD--40" value="M" style="text;html=1;align=center;verticalAlign=middle;resizable=0;points=[];autosize=1;strokeColor=none;fillColor=none;" vertex="1" parent="1">
          <mxGeometry x="640" y="470" width="30" height="30" as="geometry" />
        </mxCell>
        <mxCell id="_5IOUEIMtDK445-URSD--41" style="rounded=0;orthogonalLoop=1;jettySize=auto;html=1;entryX=0;entryY=0.5;entryDx=0;entryDy=0;" edge="1" parent="1" source="_5IOUEIMtDK445-URSD--3" target="_5IOUEIMtDK445-URSD--14">
          <mxGeometry relative="1" as="geometry" />
        </mxCell>
        <mxCell id="_5IOUEIMtDK445-URSD--47" style="rounded=0;orthogonalLoop=1;jettySize=auto;html=1;entryX=0;entryY=0.5;entryDx=0;entryDy=0;" edge="1" parent="1" source="_5IOUEIMtDK445-URSD--44" target="_5IOUEIMtDK445-URSD--46">
          <mxGeometry relative="1" as="geometry" />
        </mxCell>
        <mxCell id="_5IOUEIMtDK445-URSD--44" value="7" style="ellipse;whiteSpace=wrap;html=1;aspect=fixed;" vertex="1" parent="1">
          <mxGeometry x="560" y="320" width="80" height="80" as="geometry" />
        </mxCell>
        <mxCell id="_5IOUEIMtDK445-URSD--46" value="11" style="ellipse;whiteSpace=wrap;html=1;aspect=fixed;" vertex="1" parent="1">
          <mxGeometry x="720" y="320" width="80" height="80" as="geometry" />
        </mxCell>
        <mxCell id="_5IOUEIMtDK445-URSD--48" value="D" style="text;html=1;align=center;verticalAlign=middle;resizable=0;points=[];autosize=1;strokeColor=none;fillColor=none;" vertex="1" parent="1">
          <mxGeometry x="490" y="360" width="30" height="30" as="geometry" />
        </mxCell>
        <mxCell id="_5IOUEIMtDK445-URSD--49" value="K" style="text;html=1;align=center;verticalAlign=middle;resizable=0;points=[];autosize=1;strokeColor=none;fillColor=none;" vertex="1" parent="1">
          <mxGeometry x="660" y="360" width="30" height="30" as="geometry" />
        </mxCell>
        <mxCell id="_5IOUEIMtDK445-URSD--50" value="KT" style="ellipse;whiteSpace=wrap;html=1;aspect=fixed;" vertex="1" parent="1">
          <mxGeometry x="1020" y="435" width="80" height="80" as="geometry" />
        </mxCell>
        <mxCell id="_5IOUEIMtDK445-URSD--51" style="rounded=0;orthogonalLoop=1;jettySize=auto;html=1;entryX=0.013;entryY=0.275;entryDx=0;entryDy=0;entryPerimeter=0;" edge="1" parent="1" source="_5IOUEIMtDK445-URSD--46" target="_5IOUEIMtDK445-URSD--50">
          <mxGeometry relative="1" as="geometry" />
        </mxCell>
      </root>
    </mxGraphModel>
  </diagram>
  <diagram id="TS-goeb85nvdLX-9Se8u" name="AON  - Câu 2">
    <mxGraphModel dx="1285" dy="673" grid="1" gridSize="10" guides="1" tooltips="1" connect="1" arrows="1" fold="1" page="1" pageScale="1" pageWidth="850" pageHeight="1100" math="0" shadow="0">
      <root>
        <mxCell id="0" />
        <mxCell id="1" parent="0" />
        <mxCell id="r0qljJKOEKZnu0lteUuS-5" style="rounded=0;orthogonalLoop=1;jettySize=auto;html=1;" edge="1" parent="1" source="r0qljJKOEKZnu0lteUuS-1" target="r0qljJKOEKZnu0lteUuS-3">
          <mxGeometry relative="1" as="geometry" />
        </mxCell>
        <mxCell id="r0qljJKOEKZnu0lteUuS-1" value="BĐ" style="ellipse;whiteSpace=wrap;html=1;aspect=fixed;" vertex="1" parent="1">
          <mxGeometry x="60" y="260" width="80" height="80" as="geometry" />
        </mxCell>
        <mxCell id="r0qljJKOEKZnu0lteUuS-2" value="A" style="ellipse;whiteSpace=wrap;html=1;aspect=fixed;" vertex="1" parent="1">
          <mxGeometry x="200" y="100" width="80" height="80" as="geometry" />
        </mxCell>
        <mxCell id="r0qljJKOEKZnu0lteUuS-8" style="rounded=0;orthogonalLoop=1;jettySize=auto;html=1;" edge="1" parent="1" source="r0qljJKOEKZnu0lteUuS-3" target="r0qljJKOEKZnu0lteUuS-6">
          <mxGeometry relative="1" as="geometry" />
        </mxCell>
        <mxCell id="r0qljJKOEKZnu0lteUuS-10" style="rounded=0;orthogonalLoop=1;jettySize=auto;html=1;entryX=0;entryY=0.5;entryDx=0;entryDy=0;" edge="1" parent="1" source="r0qljJKOEKZnu0lteUuS-3" target="r0qljJKOEKZnu0lteUuS-9">
          <mxGeometry relative="1" as="geometry" />
        </mxCell>
        <mxCell id="r0qljJKOEKZnu0lteUuS-12" style="rounded=0;orthogonalLoop=1;jettySize=auto;html=1;entryX=0;entryY=0.5;entryDx=0;entryDy=0;" edge="1" parent="1" source="r0qljJKOEKZnu0lteUuS-3" target="r0qljJKOEKZnu0lteUuS-11">
          <mxGeometry relative="1" as="geometry" />
        </mxCell>
        <mxCell id="r0qljJKOEKZnu0lteUuS-3" value="B" style="ellipse;whiteSpace=wrap;html=1;aspect=fixed;" vertex="1" parent="1">
          <mxGeometry x="190" y="350" width="80" height="80" as="geometry" />
        </mxCell>
        <mxCell id="r0qljJKOEKZnu0lteUuS-4" style="rounded=0;orthogonalLoop=1;jettySize=auto;html=1;entryX=0.013;entryY=0.638;entryDx=0;entryDy=0;entryPerimeter=0;" edge="1" parent="1" source="r0qljJKOEKZnu0lteUuS-1" target="r0qljJKOEKZnu0lteUuS-2">
          <mxGeometry relative="1" as="geometry" />
        </mxCell>
        <mxCell id="r0qljJKOEKZnu0lteUuS-6" value="D" style="ellipse;whiteSpace=wrap;html=1;aspect=fixed;" vertex="1" parent="1">
          <mxGeometry x="390" y="100" width="80" height="80" as="geometry" />
        </mxCell>
        <mxCell id="r0qljJKOEKZnu0lteUuS-7" style="rounded=0;orthogonalLoop=1;jettySize=auto;html=1;entryX=0;entryY=0.5;entryDx=0;entryDy=0;" edge="1" parent="1" source="r0qljJKOEKZnu0lteUuS-2" target="r0qljJKOEKZnu0lteUuS-6">
          <mxGeometry relative="1" as="geometry" />
        </mxCell>
        <mxCell id="r0qljJKOEKZnu0lteUuS-9" value="C" style="ellipse;whiteSpace=wrap;html=1;aspect=fixed;" vertex="1" parent="1">
          <mxGeometry x="360" y="420" width="80" height="80" as="geometry" />
        </mxCell>
        <mxCell id="r0qljJKOEKZnu0lteUuS-19" style="rounded=0;orthogonalLoop=1;jettySize=auto;html=1;entryX=0;entryY=0.5;entryDx=0;entryDy=0;" edge="1" parent="1" source="r0qljJKOEKZnu0lteUuS-11" target="r0qljJKOEKZnu0lteUuS-18">
          <mxGeometry relative="1" as="geometry" />
        </mxCell>
        <mxCell id="r0qljJKOEKZnu0lteUuS-11" value="E" style="ellipse;whiteSpace=wrap;html=1;aspect=fixed;" vertex="1" parent="1">
          <mxGeometry x="360" y="250" width="80" height="80" as="geometry" />
        </mxCell>
        <mxCell id="r0qljJKOEKZnu0lteUuS-22" style="rounded=0;orthogonalLoop=1;jettySize=auto;html=1;entryX=0;entryY=0.654;entryDx=0;entryDy=0;entryPerimeter=0;" edge="1" parent="1" source="r0qljJKOEKZnu0lteUuS-13" target="r0qljJKOEKZnu0lteUuS-20">
          <mxGeometry relative="1" as="geometry" />
        </mxCell>
        <mxCell id="r0qljJKOEKZnu0lteUuS-13" value="F" style="ellipse;whiteSpace=wrap;html=1;aspect=fixed;" vertex="1" parent="1">
          <mxGeometry x="520" y="350" width="80" height="80" as="geometry" />
        </mxCell>
        <mxCell id="r0qljJKOEKZnu0lteUuS-31" style="rounded=0;orthogonalLoop=1;jettySize=auto;html=1;entryX=0;entryY=0.5;entryDx=0;entryDy=0;" edge="1" parent="1">
          <mxGeometry relative="1" as="geometry">
            <mxPoint x="670" y="459.38" as="sourcePoint" />
            <mxPoint x="790" y="459.38" as="targetPoint" />
          </mxGeometry>
        </mxCell>
        <mxCell id="r0qljJKOEKZnu0lteUuS-14" value="G" style="ellipse;whiteSpace=wrap;html=1;aspect=fixed;" vertex="1" parent="1">
          <mxGeometry x="590" y="430" width="80" height="80" as="geometry" />
        </mxCell>
        <mxCell id="r0qljJKOEKZnu0lteUuS-15" style="rounded=0;orthogonalLoop=1;jettySize=auto;html=1;entryX=0.013;entryY=0.613;entryDx=0;entryDy=0;entryPerimeter=0;" edge="1" parent="1" source="r0qljJKOEKZnu0lteUuS-9" target="r0qljJKOEKZnu0lteUuS-13">
          <mxGeometry relative="1" as="geometry" />
        </mxCell>
        <mxCell id="r0qljJKOEKZnu0lteUuS-17" style="rounded=0;orthogonalLoop=1;jettySize=auto;html=1;entryX=-0.019;entryY=0.394;entryDx=0;entryDy=0;entryPerimeter=0;" edge="1" parent="1" source="r0qljJKOEKZnu0lteUuS-9" target="r0qljJKOEKZnu0lteUuS-14">
          <mxGeometry relative="1" as="geometry" />
        </mxCell>
        <mxCell id="r0qljJKOEKZnu0lteUuS-24" style="rounded=0;orthogonalLoop=1;jettySize=auto;html=1;entryX=0;entryY=0.5;entryDx=0;entryDy=0;" edge="1" parent="1" source="r0qljJKOEKZnu0lteUuS-18" target="r0qljJKOEKZnu0lteUuS-23">
          <mxGeometry relative="1" as="geometry" />
        </mxCell>
        <mxCell id="r0qljJKOEKZnu0lteUuS-18" value="H" style="ellipse;whiteSpace=wrap;html=1;aspect=fixed;" vertex="1" parent="1">
          <mxGeometry x="520" y="210" width="80" height="80" as="geometry" />
        </mxCell>
        <mxCell id="r0qljJKOEKZnu0lteUuS-28" style="rounded=0;orthogonalLoop=1;jettySize=auto;html=1;entryX=0;entryY=0.5;entryDx=0;entryDy=0;" edge="1" parent="1" source="r0qljJKOEKZnu0lteUuS-20" target="r0qljJKOEKZnu0lteUuS-27">
          <mxGeometry relative="1" as="geometry" />
        </mxCell>
        <mxCell id="r0qljJKOEKZnu0lteUuS-20" value="I" style="ellipse;whiteSpace=wrap;html=1;aspect=fixed;" vertex="1" parent="1">
          <mxGeometry x="650" y="320" width="80" height="80" as="geometry" />
        </mxCell>
        <mxCell id="r0qljJKOEKZnu0lteUuS-21" style="rounded=0;orthogonalLoop=1;jettySize=auto;html=1;entryX=0.025;entryY=0.338;entryDx=0;entryDy=0;entryPerimeter=0;" edge="1" parent="1" source="r0qljJKOEKZnu0lteUuS-11" target="r0qljJKOEKZnu0lteUuS-20">
          <mxGeometry relative="1" as="geometry" />
        </mxCell>
        <mxCell id="r0qljJKOEKZnu0lteUuS-29" style="rounded=0;orthogonalLoop=1;jettySize=auto;html=1;entryX=0;entryY=0;entryDx=0;entryDy=0;" edge="1" parent="1" source="r0qljJKOEKZnu0lteUuS-23" target="r0qljJKOEKZnu0lteUuS-27">
          <mxGeometry relative="1" as="geometry" />
        </mxCell>
        <mxCell id="r0qljJKOEKZnu0lteUuS-23" value="J" style="ellipse;whiteSpace=wrap;html=1;aspect=fixed;" vertex="1" parent="1">
          <mxGeometry x="650" y="210" width="80" height="80" as="geometry" />
        </mxCell>
        <mxCell id="r0qljJKOEKZnu0lteUuS-35" style="rounded=0;orthogonalLoop=1;jettySize=auto;html=1;entryX=0;entryY=0;entryDx=0;entryDy=0;" edge="1" parent="1" source="r0qljJKOEKZnu0lteUuS-25" target="r0qljJKOEKZnu0lteUuS-32">
          <mxGeometry relative="1" as="geometry" />
        </mxCell>
        <mxCell id="r0qljJKOEKZnu0lteUuS-25" value="K" style="ellipse;whiteSpace=wrap;html=1;aspect=fixed;" vertex="1" parent="1">
          <mxGeometry x="790" y="100" width="80" height="80" as="geometry" />
        </mxCell>
        <mxCell id="r0qljJKOEKZnu0lteUuS-26" style="rounded=0;orthogonalLoop=1;jettySize=auto;html=1;entryX=0;entryY=0.5;entryDx=0;entryDy=0;" edge="1" parent="1" source="r0qljJKOEKZnu0lteUuS-6" target="r0qljJKOEKZnu0lteUuS-25">
          <mxGeometry relative="1" as="geometry" />
        </mxCell>
        <mxCell id="r0qljJKOEKZnu0lteUuS-27" value="L" style="ellipse;whiteSpace=wrap;html=1;aspect=fixed;" vertex="1" parent="1">
          <mxGeometry x="790" y="270" width="80" height="80" as="geometry" />
        </mxCell>
        <mxCell id="r0qljJKOEKZnu0lteUuS-30" value="M" style="ellipse;whiteSpace=wrap;html=1;aspect=fixed;" vertex="1" parent="1">
          <mxGeometry x="790" y="420" width="80" height="80" as="geometry" />
        </mxCell>
        <mxCell id="r0qljJKOEKZnu0lteUuS-32" value="KT" style="ellipse;whiteSpace=wrap;html=1;aspect=fixed;" vertex="1" parent="1">
          <mxGeometry x="940" y="260" width="80" height="80" as="geometry" />
        </mxCell>
        <mxCell id="r0qljJKOEKZnu0lteUuS-33" style="edgeStyle=orthogonalEdgeStyle;rounded=0;orthogonalLoop=1;jettySize=auto;html=1;entryX=0.024;entryY=0.616;entryDx=0;entryDy=0;entryPerimeter=0;" edge="1" parent="1" source="r0qljJKOEKZnu0lteUuS-27" target="r0qljJKOEKZnu0lteUuS-32">
          <mxGeometry relative="1" as="geometry" />
        </mxCell>
        <mxCell id="r0qljJKOEKZnu0lteUuS-34" style="rounded=0;orthogonalLoop=1;jettySize=auto;html=1;entryX=0.345;entryY=0.949;entryDx=0;entryDy=0;entryPerimeter=0;" edge="1" parent="1" source="r0qljJKOEKZnu0lteUuS-30" target="r0qljJKOEKZnu0lteUuS-32">
          <mxGeometry relative="1" as="geometry" />
        </mxCell>
      </root>
    </mxGraphModel>
  </diagram>
</mxfile>
